<?xml version="1.0" encoding="UTF-8"?>
<svg version="1.1" xmlns="http://www.w3.org/2000/svg" width="512" height="512" viewBox="0 0 512 512">
<path d="M0 0 C168.96 0 337.92 0 512 0 C512 168.96 512 337.92 512 512 C343.04 512 174.08 512 0 512 C0 343.04 0 174.08 0 0 Z " fill="#FDFDFD" transform="translate(0,0)"/>
<path d="M0 0 C3.79 2.06 7.46 4.3 11.12 6.56 C13.34 7.91 15.55 9.26 17.76 10.6 C18.34 10.95 18.92 11.31 19.52 11.67 C25.94 15.59 32.42 19.41 38.9 23.23 C50.66 30.18 62.35 37.24 73.97 44.43 C80.39 48.4 86.83 52.32 93.31 56.19 C100.78 60.65 108.19 65.19 115.57 69.79 C123.12 74.47 130.71 79.09 138.31 83.69 C146.95 88.92 155.56 94.18 164.11 99.56 C168.79 102.5 173.49 105.41 178.19 108.31 C179.07 108.86 179.96 109.41 180.88 109.98 C185.33 112.73 189.78 115.48 194.23 118.23 C197.7 120.37 201.17 122.51 204.63 124.67 C208.39 127.01 212.17 129.32 215.96 131.61 C217.94 132.82 219.91 134.04 221.88 135.25 C222.78 135.79 223.69 136.33 224.63 136.89 C232.28 141.65 237.97 147.37 241 156 C242.18 164.1 240.45 170.22 236 177 C229.68 184.77 219.72 189.9 211.25 195.06 C200.09 201.92 189.03 208.94 178 216 C176.99 216.64 175.99 217.29 174.95 217.95 C170.74 220.64 166.53 223.34 162.32 226.03 C152.79 232.14 143.25 238.21 133.7 244.28 C129.13 247.19 124.57 250.09 120 253 C118.17 254.17 116.33 255.33 114.5 256.5 C113.14 257.37 113.14 257.37 111.75 258.25 C81.5 277.5 81.5 277.5 78.75 279.25 C76.91 280.42 75.08 281.59 73.24 282.75 C68.7 285.65 64.15 288.54 59.61 291.43 C50.95 296.93 42.31 302.44 33.67 307.97 C30.53 309.98 27.38 312 24.23 314.01 C20.05 316.68 15.88 319.37 11.7 322.05 C9.72 323.33 7.73 324.6 5.75 325.88 C4.38 326.76 4.38 326.76 2.99 327.66 C2.14 328.2 1.3 328.75 0.42 329.3 C-0.31 329.78 -1.05 330.25 -1.81 330.74 C-8.37 334.51 -14.55 334.97 -22 334 C-28.59 331.52 -32.33 326.83 -35.76 320.88 C-37.96 315.77 -37.82 310.8 -37.74 305.31 C-37.75 304.07 -37.76 302.82 -37.76 301.54 C-37.78 298.11 -37.76 294.68 -37.74 291.26 C-37.72 287.55 -37.74 283.84 -37.75 280.13 C-37.76 272.88 -37.74 265.63 -37.72 258.38 C-37.69 249.93 -37.69 241.48 -37.69 233.03 C-37.69 217.96 -37.66 202.88 -37.62 187.8 C-37.58 173.18 -37.55 158.56 -37.56 143.94 C-37.56 143.04 -37.56 142.14 -37.56 141.21 C-37.56 140.31 -37.56 139.41 -37.56 138.48 C-37.56 121.82 -37.54 105.16 -37.51 88.5 C-37.51 82.61 -37.5 76.73 -37.5 70.84 C-37.5 63.67 -37.49 56.49 -37.46 49.32 C-37.44 45.66 -37.43 42 -37.44 38.34 C-37.44 34.37 -37.42 30.4 -37.4 26.44 C-37.41 25.28 -37.41 24.13 -37.42 22.94 C-37.35 15.59 -36.86 9.37 -31.91 3.54 C-30.78 2.59 -30.78 2.59 -29.62 1.62 C-28.87 0.98 -28.12 0.33 -27.35 -0.34 C-18.37 -6.69 -9.28 -4.36 0 0 Z " fill="#FD7E03" transform="translate(100,84)"/>
<path d="M0 0 C7.29 3.69 14.25 7.95 21.24 12.16 C25.1 14.49 28.96 16.79 32.83 19.08 C33.46 19.46 34.09 19.83 34.74 20.21 C36.04 20.98 37.33 21.75 38.62 22.51 C59.2 34.71 79.72 47.02 100.16 59.45 C106.84 63.51 113.54 67.56 120.25 71.57 C128.16 76.31 136.05 81.09 143.93 85.89 C152.86 91.31 161.79 96.71 170.75 102.07 C180.82 108.11 190.88 114.18 200.91 120.29 C206.51 123.71 212.13 127.1 217.78 130.44 C218.81 131.06 219.84 131.67 220.9 132.3 C222.8 133.43 224.7 134.56 226.61 135.67 C235.04 140.71 244.21 146.75 247.69 156.33 C249.61 164.08 247.99 170.6 244.25 177.57 C241.4 181.69 238.1 184.34 233.93 187.01 C233.29 187.43 232.65 187.85 231.99 188.28 C225.09 192.76 218.04 197 211 201.26 C204.12 205.42 197.3 209.66 190.51 213.97 C184.21 217.97 177.89 221.93 171.56 225.89 C170.55 226.51 169.55 227.14 168.51 227.79 C164.39 230.36 160.27 232.94 156.14 235.51 C142.82 243.83 129.52 252.17 116.25 260.57 C113.19 262.51 110.12 264.45 107.06 266.39 C106.29 266.88 105.51 267.37 104.71 267.87 C100.33 270.64 95.93 273.4 91.52 276.14 C81.4 282.43 71.33 288.78 61.37 295.32 C54 300.16 46.59 304.88 39.04 309.43 C31.96 313.71 24.99 318.16 18.03 322.63 C-4.77 337.23 -4.77 337.23 -17.75 335.57 C-24.47 333.01 -28.51 328.01 -32.35 322.13 C-34.38 316.99 -34.32 312.12 -34.4 306.64 C-34.43 304.91 -34.43 304.91 -34.46 303.15 C-34.49 300.72 -34.51 298.29 -34.53 295.86 C-34.57 292.15 -34.67 288.45 -34.78 284.74 C-34.8 282.37 -34.82 280.01 -34.83 277.64 C-34.9 275.98 -34.9 275.98 -34.96 274.29 C-34.9 266.76 -34.9 266.76 -31.65 263.4 C-29.09 261.58 -26.52 260.05 -23.75 258.57 C-22.74 257.91 -21.73 257.26 -20.68 256.58 C-19.84 256.05 -18.99 255.53 -18.12 255 C-17.16 254.4 -16.2 253.8 -15.21 253.18 C-14.21 252.57 -13.22 251.96 -12.19 251.32 C-5.13 246.94 1.91 242.54 8.87 238.01 C18.01 232.06 27.22 226.21 36.43 220.37 C39.18 218.61 41.94 216.86 44.7 215.1 C52.32 210.24 59.94 205.38 67.61 200.6 C69.21 199.61 69.21 199.61 70.84 198.6 C72.88 197.33 74.91 196.07 76.95 194.81 C82.54 191.34 87.95 187.73 93.26 183.86 C95.25 182.57 95.25 182.57 97.25 182.57 C97.52 182.01 97.8 181.44 98.08 180.86 C98.86 179.34 99.67 177.85 100.54 176.38 C104.09 170.07 105.43 164.8 104.25 157.57 C103.26 154.63 102 152.13 100.25 149.57 C99.74 148.8 99.23 148.03 98.71 147.24 C95.18 143.42 91.03 140.98 86.62 138.26 C85.66 137.66 84.7 137.05 83.7 136.43 C80.56 134.47 77.4 132.52 74.25 130.57 C73.18 129.91 72.11 129.25 71.01 128.57 C64.46 124.53 57.91 120.5 51.35 116.48 C46.7 113.63 42.07 110.76 37.43 107.89 C36.58 107.36 35.73 106.83 34.85 106.29 C30.65 103.69 26.46 101.08 22.26 98.48 C20.57 97.43 18.88 96.37 17.18 95.32 C15.92 94.54 15.92 94.54 14.63 93.74 C9.48 90.55 4.31 87.39 -0.88 84.26 C-1.49 83.89 -2.11 83.51 -2.74 83.13 C-5.76 81.3 -8.78 79.48 -11.81 77.66 C-14.05 76.31 -16.27 74.93 -18.48 73.52 C-21.7 71.5 -21.7 71.5 -25.22 70.14 C-29.1 68.32 -31.17 67.02 -33.75 63.57 C-35.57 56.72 -35.14 49.5 -34.88 42.47 C-34.75 39.08 -34.71 35.7 -34.69 32.3 C-34.65 30.13 -34.61 27.96 -34.57 25.79 C-34.55 24.79 -34.53 23.78 -34.51 22.75 C-34.22 15.43 -32.66 9.9 -27.79 4.33 C-27.14 3.79 -26.49 3.25 -25.82 2.7 C-25.17 2.14 -24.52 1.59 -23.85 1.02 C-16.23 -4.23 -8.11 -3.85 0 0 Z " fill="#017FD6" transform="translate(235.752685546875,82.42626953125)"/>
<path d="M0 0 C12.49 6.81 12.49 6.81 18.25 10.5 C24.96 14.74 31.72 18.89 38.5 23 C45.7 27.37 52.88 31.77 60.01 36.25 C65.39 39.62 70.79 42.97 76.19 46.31 C77.07 46.86 77.96 47.41 78.87 47.98 C83.33 50.73 87.78 53.48 92.23 56.23 C95.7 58.37 99.17 60.51 102.63 62.67 C106.39 65.01 110.17 67.32 113.96 69.61 C115.94 70.82 117.91 72.04 119.88 73.25 C120.78 73.79 121.69 74.33 122.63 74.89 C130.28 79.65 135.97 85.37 139 94 C140.18 102.1 138.45 108.22 134 115 C127.68 122.77 117.72 127.9 109.25 133.06 C98.09 139.92 87.03 146.94 76 154 C74.99 154.64 73.99 155.29 72.95 155.95 C68.74 158.64 64.53 161.34 60.32 164.03 C51.71 169.55 43.09 175.05 34.45 180.53 C30.63 182.96 26.8 185.4 22.98 187.84 C21.99 188.48 21 189.11 19.98 189.76 C18.09 190.97 16.2 192.17 14.32 193.38 C13.46 193.93 12.6 194.48 11.72 195.04 C10.61 195.75 10.61 195.75 9.47 196.48 C6.35 198.4 3.17 200.19 0 202 C0 135.34 0 68.68 0 0 Z " fill="#FC9503" transform="translate(202,146)"/>
</svg>
