<svg viewBox="0 0 28 28" xmlns="http://www.w3.org/2000/svg" width="32" height="32" fill="none"><path fill="#ffffff" d="M0 0h28v28H0z"/><path fill="#00A1DE" d="M12.847 5.805c.341-.195.713-.293 1.083-.305a2.31 2.31 0 0 0-1.934 1.135L5.31 18.011a2.25 2.25 0 0 0 .847 3.105c1.105.627 2.52.256 3.157-.83L14 12.31l-1.998-3.401a2.25 2.25 0 0 1 .845-3.104"/><path fill="#0039A6" d="M22.69 18.012 16.006 6.638a2.32 2.32 0 0 0-1.936-1.135c.367.01.74.11 1.08.304a2.25 2.25 0 0 1 .845 3.103L14 12.31l4.683 7.976c.639 1.086 2.052 1.458 3.158.83a2.25 2.25 0 0 0 .849-3.104"/><path fill="#002C77" d="M15.153 5.805a2.3 2.3 0 0 0-1.08-.305h-.143c-.37.012-.742.11-1.083.305a2.25 2.25 0 0 0-.845 3.104L14 12.31l2-3.403a2.25 2.25 0 0 0-.847-3.102"/><path fill="#EEAF30" d="M16.38 19.163c0 1.293-1.064 2.337-2.379 2.337s-2.38-1.046-2.38-2.337c0-1.29 1.064-2.337 2.378-2.337s2.38 1.048 2.38 2.337"/></svg>