<?xml version="1.0" encoding="UTF-8"?>
<svg version="1.1" xmlns="http://www.w3.org/2000/svg" width="512" height="512" viewBox="0 0 512 512">
<path d="M0 0 C168.96 0 337.92 0 512 0 C512 168.96 512 337.92 512 512 C343.04 512 174.08 512 0 512 C0 343.04 0 174.08 0 0 Z " fill="#FCFCFC" transform="translate(0,0)"/>
<path d="M0 0 C12.97 -0.06 25.94 -0.11 38.91 -0.14 C46.05 -0.16 53.19 -0.19 60.33 -0.23 C66.87 -0.27 73.41 -0.29 79.95 -0.29 C82.27 -0.29 84.58 -0.31 86.9 -0.32 C107.98 -0.49 124.78 1.72 140.73 16.72 C152.61 29.03 156.23 43.23 156.24 59.88 C156.25 60.91 156.27 61.95 156.28 63.01 C156.3 72.66 155.23 81.13 150.49 89.63 C149.96 90.59 149.96 90.59 149.43 91.56 C141.24 105.91 128.84 114.59 113.05 119.13 C108 119.78 103 119.8 97.91 119.75 C96.42 119.75 94.94 119.76 93.45 119.77 C89.4 119.79 85.35 119.77 81.3 119.75 C76.92 119.74 72.54 119.75 68.15 119.76 C59.58 119.78 51.01 119.76 42.44 119.74 C32.45 119.72 22.46 119.72 12.47 119.72 C-5.36 119.73 -23.19 119.7 -41.02 119.67 C-58.31 119.64 -75.59 119.62 -92.87 119.63 C-111.71 119.64 -130.56 119.63 -149.4 119.61 C-150.4 119.61 -151.4 119.61 -152.42 119.61 C-154.43 119.61 -156.43 119.61 -158.43 119.6 C-165.39 119.6 -172.34 119.6 -179.3 119.6 C-187.78 119.6 -196.26 119.59 -204.75 119.57 C-209.07 119.56 -213.39 119.55 -217.72 119.55 C-221.68 119.56 -225.65 119.55 -229.61 119.53 C-231.04 119.53 -232.47 119.53 -233.89 119.53 C-252.59 119.6 -267.32 115.25 -280.95 102.13 C-294.84 85.93 -296.31 67.6 -294.95 47.13 C-294.3 42.51 -292.86 38.38 -290.95 34.13 C-290.65 33.31 -290.36 32.48 -290.06 31.63 C-285.01 19.16 -273.18 9.87 -261.3 4.36 C-254.58 1.89 -248.61 0.83 -241.51 0.85 C-240.29 0.84 -240.29 0.84 -239.05 0.83 C-236.33 0.82 -233.62 0.81 -230.91 0.81 C-228.95 0.8 -226.99 0.79 -225.03 0.78 C-219.68 0.75 -214.33 0.74 -208.98 0.72 C-203.27 0.71 -197.57 0.68 -191.87 0.66 C-180.86 0.61 -169.86 0.57 -158.85 0.54 C-150 0.51 -141.15 0.48 -132.3 0.45 C-105.94 0.36 -79.59 0.28 -53.23 0.2 C-35.49 0.15 -17.74 0.08 0 0 Z " fill="#98CBF9" transform="translate(325.9466609954834,191.87121963500977)"/>
</svg>
